<svg width="605" height="471" viewBox="0 0 605 471" fill="none" xmlns="http://www.w3.org/2000/svg">
<path d="M561.975 246.855C618.475 190.355 618.475 98.8552 561.975 42.3552C511.975 -7.64482 433.175 -14.1448 375.675 26.9552L374.075 28.0552C359.675 38.3552 356.375 58.3552 366.675 72.6552C376.975 86.9552 396.975 90.3552 411.275 80.0552L412.875 78.9552C444.975 56.0552 488.875 59.6552 516.675 87.5552C548.175 119.055 548.175 170.055 516.675 201.555L404.475 313.955C372.975 345.455 321.975 345.455 290.475 313.955C262.575 286.055 258.975 242.155 281.875 210.155L282.975 208.555C293.275 194.155 289.875 174.155 275.575 163.955C261.275 153.755 241.175 157.055 230.975 171.355L229.875 172.955C188.675 230.355 195.175 309.155 245.175 359.155C301.675 415.655 393.175 415.655 449.675 359.155L561.975 246.855ZM42.375 223.455C-14.125 279.955 -14.125 371.455 42.375 427.955C92.375 477.955 171.175 484.455 228.675 443.355L230.275 442.255C244.675 431.955 247.975 411.955 237.675 397.655C227.375 383.355 207.375 379.955 193.075 390.255L191.475 391.355C159.375 414.255 115.475 410.655 87.675 382.755C56.175 351.155 56.175 300.155 87.675 268.655L199.875 156.355C231.375 124.855 282.375 124.855 313.875 156.355C341.775 184.255 345.375 228.155 322.475 260.255L321.375 261.855C311.075 276.255 314.475 296.255 328.775 306.455C343.075 316.655 363.175 313.355 373.375 299.055L374.475 297.455C415.675 239.955 409.175 161.155 359.175 111.155C302.675 54.6552 211.175 54.6552 154.675 111.155L42.375 223.455Z" fill="black"/>
</svg>
